<mxfile host="app.diagrams.net" agent="Mozilla/5.0 (X11; Linux x86_64) AppleWebKit/537.36 (KHTML, like Gecko) Chrome/126.0.0.0 Safari/537.36" version="24.7.17">
  <diagram name="Página-1" id="b6rSsuU6iTBVWGWR_ONI">
    <mxGraphModel dx="1621" dy="724" grid="1" gridSize="10" guides="1" tooltips="1" connect="1" arrows="1" fold="1" page="1" pageScale="1" pageWidth="827" pageHeight="1169" math="0" shadow="0">
      <root>
        <mxCell id="0" />
        <mxCell id="1" parent="0" />
        <mxCell id="-3Bvyh9rpSoeFbv1W1vE-1" value="EMPLEADO" style="whiteSpace=wrap;html=1;" vertex="1" parent="1">
          <mxGeometry x="80" y="160" width="120" height="60" as="geometry" />
        </mxCell>
        <mxCell id="-3Bvyh9rpSoeFbv1W1vE-2" value="NOMINA" style="whiteSpace=wrap;html=1;" vertex="1" parent="1">
          <mxGeometry x="580" y="170" width="120" height="60" as="geometry" />
        </mxCell>
        <mxCell id="-3Bvyh9rpSoeFbv1W1vE-3" value="DEPARTAMENTO" style="whiteSpace=wrap;html=1;" vertex="1" parent="1">
          <mxGeometry x="60" y="410" width="120" height="60" as="geometry" />
        </mxCell>
        <mxCell id="-3Bvyh9rpSoeFbv1W1vE-4" value="LINEA NOMINA" style="whiteSpace=wrap;html=1;" vertex="1" parent="1">
          <mxGeometry x="560" y="535" width="120" height="60" as="geometry" />
        </mxCell>
        <mxCell id="-3Bvyh9rpSoeFbv1W1vE-5" value="" style="whiteSpace=wrap;html=1;fillColor=none;" vertex="1" parent="1">
          <mxGeometry x="532.5" y="520" width="175" height="90" as="geometry" />
        </mxCell>
        <mxCell id="-3Bvyh9rpSoeFbv1W1vE-6" value="" style="endArrow=none;html=1;rounded=0;entryX=0.5;entryY=1;entryDx=0;entryDy=0;" edge="1" parent="1" target="-3Bvyh9rpSoeFbv1W1vE-5">
          <mxGeometry width="50" height="50" relative="1" as="geometry">
            <mxPoint x="620" y="685" as="sourcePoint" />
            <mxPoint x="430" y="575" as="targetPoint" />
          </mxGeometry>
        </mxCell>
        <mxCell id="-3Bvyh9rpSoeFbv1W1vE-7" value="Ingreso" style="whiteSpace=wrap;html=1;" vertex="1" parent="1">
          <mxGeometry x="450" y="700" width="120" height="60" as="geometry" />
        </mxCell>
        <mxCell id="-3Bvyh9rpSoeFbv1W1vE-8" value="Descuento" style="whiteSpace=wrap;html=1;" vertex="1" parent="1">
          <mxGeometry x="660" y="700" width="120" height="60" as="geometry" />
        </mxCell>
        <mxCell id="-3Bvyh9rpSoeFbv1W1vE-9" value="CONCEPTO RETRIBUTIBO" style="whiteSpace=wrap;html=1;" vertex="1" parent="1">
          <mxGeometry x="130" y="535" width="120" height="60" as="geometry" />
        </mxCell>
        <mxCell id="-3Bvyh9rpSoeFbv1W1vE-10" value="" style="endArrow=none;html=1;rounded=0;entryX=0;entryY=0.5;entryDx=0;entryDy=0;exitX=1;exitY=0.5;exitDx=0;exitDy=0;" edge="1" parent="1" source="-3Bvyh9rpSoeFbv1W1vE-1" target="-3Bvyh9rpSoeFbv1W1vE-2">
          <mxGeometry width="50" height="50" relative="1" as="geometry">
            <mxPoint x="370" y="540" as="sourcePoint" />
            <mxPoint x="420" y="490" as="targetPoint" />
          </mxGeometry>
        </mxCell>
        <mxCell id="-3Bvyh9rpSoeFbv1W1vE-11" value="" style="rhombus;whiteSpace=wrap;html=1;" vertex="1" parent="1">
          <mxGeometry x="370" y="165" width="50" height="50" as="geometry" />
        </mxCell>
        <mxCell id="-3Bvyh9rpSoeFbv1W1vE-12" value="(1,n)" style="text;html=1;align=center;verticalAlign=middle;resizable=0;points=[];autosize=1;strokeColor=none;fillColor=none;" vertex="1" parent="1">
          <mxGeometry x="525" y="158" width="50" height="30" as="geometry" />
        </mxCell>
        <mxCell id="-3Bvyh9rpSoeFbv1W1vE-14" value="" style="edgeStyle=orthogonalEdgeStyle;rounded=0;orthogonalLoop=1;jettySize=auto;html=1;" edge="1" parent="1" source="-3Bvyh9rpSoeFbv1W1vE-13" target="-3Bvyh9rpSoeFbv1W1vE-1">
          <mxGeometry relative="1" as="geometry" />
        </mxCell>
        <mxCell id="-3Bvyh9rpSoeFbv1W1vE-13" value="NºEmpleado(pk), nif, nombre, nºhijos, %hacienda" style="text;html=1;align=center;verticalAlign=middle;resizable=0;points=[];autosize=1;strokeColor=none;fillColor=none;" vertex="1" parent="1">
          <mxGeometry y="110" width="290" height="30" as="geometry" />
        </mxCell>
        <mxCell id="-3Bvyh9rpSoeFbv1W1vE-15" value="banco&lt;div&gt;sucursal&lt;/div&gt;&lt;div&gt;nºcuenta&lt;/div&gt;" style="text;html=1;align=center;verticalAlign=middle;resizable=0;points=[];autosize=1;strokeColor=none;fillColor=none;" vertex="1" parent="1">
          <mxGeometry x="-15" y="153" width="70" height="60" as="geometry" />
        </mxCell>
        <mxCell id="-3Bvyh9rpSoeFbv1W1vE-17" value="" style="endArrow=none;html=1;rounded=0;entryX=0.375;entryY=1.033;entryDx=0;entryDy=0;entryPerimeter=0;exitX=0.558;exitY=-0.067;exitDx=0;exitDy=0;exitPerimeter=0;" edge="1" parent="1" source="-3Bvyh9rpSoeFbv1W1vE-18" target="-3Bvyh9rpSoeFbv1W1vE-1">
          <mxGeometry width="50" height="50" relative="1" as="geometry">
            <mxPoint x="280" y="320" as="sourcePoint" />
            <mxPoint x="330" y="270" as="targetPoint" />
          </mxGeometry>
        </mxCell>
        <mxCell id="-3Bvyh9rpSoeFbv1W1vE-19" value="" style="endArrow=none;html=1;rounded=0;entryX=0.375;entryY=1.033;entryDx=0;entryDy=0;entryPerimeter=0;exitX=0.558;exitY=-0.067;exitDx=0;exitDy=0;exitPerimeter=0;" edge="1" parent="1" source="-3Bvyh9rpSoeFbv1W1vE-3" target="-3Bvyh9rpSoeFbv1W1vE-18">
          <mxGeometry width="50" height="50" relative="1" as="geometry">
            <mxPoint x="122" y="406" as="sourcePoint" />
            <mxPoint x="125" y="222" as="targetPoint" />
          </mxGeometry>
        </mxCell>
        <mxCell id="-3Bvyh9rpSoeFbv1W1vE-18" value="" style="rhombus;whiteSpace=wrap;html=1;" vertex="1" parent="1">
          <mxGeometry x="100" y="290" width="40" height="40" as="geometry" />
        </mxCell>
        <mxCell id="-3Bvyh9rpSoeFbv1W1vE-20" value="(1,n)" style="text;html=1;align=center;verticalAlign=middle;resizable=0;points=[];autosize=1;strokeColor=none;fillColor=none;" vertex="1" parent="1">
          <mxGeometry x="105" y="378" width="50" height="30" as="geometry" />
        </mxCell>
        <mxCell id="-3Bvyh9rpSoeFbv1W1vE-21" value="funcion_trabajo" style="text;html=1;align=center;verticalAlign=middle;resizable=0;points=[];autosize=1;strokeColor=none;fillColor=none;" vertex="1" parent="1">
          <mxGeometry y="300" width="110" height="30" as="geometry" />
        </mxCell>
        <mxCell id="-3Bvyh9rpSoeFbv1W1vE-22" value="(1,n)" style="text;html=1;align=center;verticalAlign=middle;resizable=0;points=[];autosize=1;strokeColor=none;fillColor=none;" vertex="1" parent="1">
          <mxGeometry x="115" y="208" width="50" height="30" as="geometry" />
        </mxCell>
        <mxCell id="-3Bvyh9rpSoeFbv1W1vE-23" value="nombre,&amp;nbsp; &amp;nbsp;sede" style="text;html=1;align=center;verticalAlign=middle;resizable=0;points=[];autosize=1;strokeColor=none;fillColor=none;" vertex="1" parent="1">
          <mxGeometry x="10" y="470" width="100" height="30" as="geometry" />
        </mxCell>
        <mxCell id="-3Bvyh9rpSoeFbv1W1vE-24" value="Ingreso_total,&amp;nbsp; &amp;nbsp;descuento" style="text;html=1;align=center;verticalAlign=middle;resizable=0;points=[];autosize=1;strokeColor=none;fillColor=none;" vertex="1" parent="1">
          <mxGeometry x="540" y="118" width="160" height="30" as="geometry" />
        </mxCell>
        <mxCell id="-3Bvyh9rpSoeFbv1W1vE-25" value="ejercicio_fiscal, nºmes&lt;div&gt;&lt;br&gt;&lt;/div&gt;" style="text;html=1;align=center;verticalAlign=middle;resizable=0;points=[];autosize=1;strokeColor=none;fillColor=none;" vertex="1" parent="1">
          <mxGeometry x="310" y="123" width="140" height="40" as="geometry" />
        </mxCell>
        <mxCell id="-3Bvyh9rpSoeFbv1W1vE-26" value="" style="endArrow=none;html=1;rounded=0;entryX=0.5;entryY=1;entryDx=0;entryDy=0;exitX=0.5;exitY=0;exitDx=0;exitDy=0;" edge="1" parent="1" source="-3Bvyh9rpSoeFbv1W1vE-5" target="-3Bvyh9rpSoeFbv1W1vE-2">
          <mxGeometry width="50" height="50" relative="1" as="geometry">
            <mxPoint x="340" y="440" as="sourcePoint" />
            <mxPoint x="390" y="390" as="targetPoint" />
          </mxGeometry>
        </mxCell>
        <mxCell id="-3Bvyh9rpSoeFbv1W1vE-27" value="(1,2)" style="text;html=1;align=center;verticalAlign=middle;resizable=0;points=[];autosize=1;strokeColor=none;fillColor=none;" vertex="1" parent="1">
          <mxGeometry x="615" y="490" width="50" height="30" as="geometry" />
        </mxCell>
        <mxCell id="-3Bvyh9rpSoeFbv1W1vE-28" value="(0,1)" style="text;html=1;align=center;verticalAlign=middle;resizable=0;points=[];autosize=1;strokeColor=none;fillColor=none;" vertex="1" parent="1">
          <mxGeometry x="635" y="658" width="50" height="30" as="geometry" />
        </mxCell>
        <mxCell id="-3Bvyh9rpSoeFbv1W1vE-29" value="(1,2)" style="text;html=1;align=center;verticalAlign=middle;resizable=0;points=[];autosize=1;strokeColor=none;fillColor=none;" vertex="1" parent="1">
          <mxGeometry x="545" y="658" width="50" height="30" as="geometry" />
        </mxCell>
        <mxCell id="-3Bvyh9rpSoeFbv1W1vE-30" value="nºlinea" style="text;html=1;align=center;verticalAlign=middle;resizable=0;points=[];autosize=1;strokeColor=none;fillColor=none;" vertex="1" parent="1">
          <mxGeometry x="510" y="488" width="60" height="30" as="geometry" />
        </mxCell>
        <mxCell id="-3Bvyh9rpSoeFbv1W1vE-31" value="" style="endArrow=none;html=1;rounded=0;exitX=1;exitY=0.75;exitDx=0;exitDy=0;entryX=0;entryY=0.75;entryDx=0;entryDy=0;" edge="1" parent="1" source="-3Bvyh9rpSoeFbv1W1vE-9" target="-3Bvyh9rpSoeFbv1W1vE-5">
          <mxGeometry width="50" height="50" relative="1" as="geometry">
            <mxPoint x="340" y="440" as="sourcePoint" />
            <mxPoint x="390" y="390" as="targetPoint" />
          </mxGeometry>
        </mxCell>
        <mxCell id="-3Bvyh9rpSoeFbv1W1vE-32" value="" style="rhombus;whiteSpace=wrap;html=1;" vertex="1" parent="1">
          <mxGeometry x="380" y="565" width="40" height="40" as="geometry" />
        </mxCell>
        <mxCell id="-3Bvyh9rpSoeFbv1W1vE-33" value="codigo,&amp;nbsp; &amp;nbsp; descripcion" style="text;html=1;align=center;verticalAlign=middle;resizable=0;points=[];autosize=1;strokeColor=none;fillColor=none;" vertex="1" parent="1">
          <mxGeometry x="75" y="595" width="140" height="30" as="geometry" />
        </mxCell>
        <mxCell id="-3Bvyh9rpSoeFbv1W1vE-34" value="(1,n)" style="text;html=1;align=center;verticalAlign=middle;resizable=0;points=[];autosize=1;strokeColor=none;fillColor=none;" vertex="1" parent="1">
          <mxGeometry x="485" y="548" width="50" height="30" as="geometry" />
        </mxCell>
        <mxCell id="-3Bvyh9rpSoeFbv1W1vE-35" value="(1,1)" style="text;html=1;align=center;verticalAlign=middle;resizable=0;points=[];autosize=1;strokeColor=none;fillColor=none;" vertex="1" parent="1">
          <mxGeometry x="235" y="548" width="50" height="30" as="geometry" />
        </mxCell>
        <mxCell id="-3Bvyh9rpSoeFbv1W1vE-37" value="%descuento" style="text;html=1;align=center;verticalAlign=middle;resizable=0;points=[];autosize=1;strokeColor=none;fillColor=none;" vertex="1" parent="1">
          <mxGeometry x="660" y="760" width="90" height="30" as="geometry" />
        </mxCell>
        <mxCell id="-3Bvyh9rpSoeFbv1W1vE-39" value="" style="endArrow=none;html=1;rounded=0;entryX=0;entryY=0.5;entryDx=0;entryDy=0;exitX=1;exitY=0.633;exitDx=0;exitDy=0;exitPerimeter=0;" edge="1" parent="1" source="-3Bvyh9rpSoeFbv1W1vE-7" target="-3Bvyh9rpSoeFbv1W1vE-8">
          <mxGeometry width="50" height="50" relative="1" as="geometry">
            <mxPoint x="340" y="680" as="sourcePoint" />
            <mxPoint x="390" y="630" as="targetPoint" />
          </mxGeometry>
        </mxCell>
        <mxCell id="-3Bvyh9rpSoeFbv1W1vE-40" value="(1,1)" style="text;html=1;align=center;verticalAlign=middle;resizable=0;points=[];autosize=1;strokeColor=none;fillColor=none;" vertex="1" parent="1">
          <mxGeometry x="555" y="730" width="50" height="30" as="geometry" />
        </mxCell>
        <mxCell id="-3Bvyh9rpSoeFbv1W1vE-41" value="(1,n)" style="text;html=1;align=center;verticalAlign=middle;resizable=0;points=[];autosize=1;strokeColor=none;fillColor=none;" vertex="1" parent="1">
          <mxGeometry x="630" y="730" width="50" height="30" as="geometry" />
        </mxCell>
        <mxCell id="-3Bvyh9rpSoeFbv1W1vE-42" value="dinero_ingreso" style="text;html=1;align=center;verticalAlign=middle;resizable=0;points=[];autosize=1;strokeColor=none;fillColor=none;" vertex="1" parent="1">
          <mxGeometry x="440" y="758" width="100" height="30" as="geometry" />
        </mxCell>
      </root>
    </mxGraphModel>
  </diagram>
</mxfile>
